<?xml version="1.0" encoding="UTF-8"?>
<svg id="Layer_2" data-name="Layer 2" xmlns="http://www.w3.org/2000/svg" viewBox="0 0 85.1 85.1">
  <defs>
    <style>
      .cls-1 {
        fill: none;
        stroke: #522c80;
        stroke-miterlimit: 10;
        stroke-width: 4px;
      }
    </style>
  </defs>
  <g id="Layer_1-2" data-name="Layer 1">
    <line class="cls-1" x1="9.05" y1="58.42" x2="30.21" y2="58.42"/>
    <line class="cls-1" x1="9.05" y1="65.47" x2="30.21" y2="65.47"/>
    <line class="cls-1" x1="9.05" y1="72.52" x2="23.16" y2="72.52"/>
    <path class="cls-1" d="m30.21,14.34c0,4.87-3.95,8.81-8.81,8.81s-8.81-3.95-8.81-8.81v-3.53c0-4.87,3.95-8.81,8.81-8.81s8.81,3.95,8.81,8.81v3.53Z"/>
    <path class="cls-1" d="m2,39.02c0-4.87,3.95-8.81,8.81-8.81h21.16c4.87,0,8.81,3.95,8.81,8.81"/>
    <path class="cls-1" d="m72.52,60.18c0,4.87-3.95,8.81-8.81,8.81s-8.81-3.95-8.81-8.81v-3.53c0-4.87,3.95-8.81,8.81-8.81s8.81,3.95,8.81,8.81v3.53Z"/>
    <path class="cls-1" d="m44.31,84.86c0-4.87,3.95-8.81,8.81-8.81h21.16c4.87,0,8.81,3.95,8.81,8.81"/>
    <path class="cls-1" d="m51.36,2c-1.95,0-3.53,1.58-3.53,3.53v8.81l-9.04,5.27,9.04,5.31v8.81c0,1.95,1.58,3.53,3.53,3.53h28.21c1.95,0,3.53-1.58,3.53-3.53V5.53c0-1.95-1.58-3.53-3.53-3.53h-28.21Z"/>
    <path class="cls-1" d="m33.73,47.84c1.95,0,3.53,1.58,3.53,3.53v8.81l9.04,5.27-9.04,5.31v8.81c0,1.95-1.58,3.53-3.53,3.53H5.53c-1.95,0-3.53-1.58-3.53-3.53v-28.21c0-1.95,1.58-3.53,3.53-3.53h28.21Z"/>
    <line class="cls-1" x1="56.65" y1="19.63" x2="60.18" y2="19.63"/>
    <line class="cls-1" x1="63.7" y1="19.63" x2="67.23" y2="19.63"/>
    <line class="cls-1" x1="70.76" y1="19.63" x2="74.28" y2="19.63"/>
  </g>
</svg>