<?xml version="1.0" encoding="UTF-8"?>
<svg id="Layer_2" data-name="Layer 2" xmlns="http://www.w3.org/2000/svg" viewBox="0 0 86.97 86.97">
  <defs>
    <style>
      .cls-1 {
        fill: none;
        stroke: #522c80;
        stroke-miterlimit: 10;
        stroke-width: 4px;
      }
    </style>
  </defs>
  <g id="Layer_1-2" data-name="Layer 1">
    <path class="cls-1" d="m52.51,57.92v23.45c0,1.99-1.62,3.61-3.61,3.61H5.61c-1.99,0-3.61-1.62-3.61-3.61V5.61c0-1.99,1.62-3.61,3.61-3.61h43.29c1.99,0,3.61,1.62,3.61,3.61v28.86"/>
    <line class="cls-1" x1="32.66" y1="77.76" x2="21.84" y2="77.76"/>
    <line class="cls-1" x1="2" y1="70.54" x2="52.51" y2="70.54"/>
    <line class="cls-1" x1="2" y1="12.82" x2="52.51" y2="12.82"/>
    <path class="cls-1" d="m45.29,57.92l31.87,1.44c2.83.2,5.34-1.82,5.74-4.63l2.01-14.08c.22-1.55-.24-3.13-1.27-4.31-1.03-1.19-2.52-1.87-4.09-1.87h-8.19c.36-1.41,2.42-8.65,2.51-11.79.07-2.52-.68-4.55-3.4-4.44-.76.03-1.92.8-2.23,1.53-4.92,11.72-13.74,16.51-22.96,16.51"/>
    <polyline class="cls-1" points="25.45 30.86 45.29 30.86 45.29 61.53 29.06 61.53"/>
    <line class="cls-1" x1="36.27" y1="48.9" x2="36.27" y2="54.31"/>
    <line class="cls-1" x1="21.84" y1="30.86" x2="14.63" y2="30.86"/>
    <line class="cls-1" x1="11.02" y1="30.86" x2="7.41" y2="30.86"/>
    <line class="cls-1" x1="25.45" y1="61.53" x2="14.63" y2="61.53"/>
    <line class="cls-1" x1="11.02" y1="61.53" x2="7.41" y2="61.53"/>
  </g>
</svg>