<?xml version="1.0" encoding="UTF-8"?>
<svg id="Layer_2" data-name="Layer 2" xmlns="http://www.w3.org/2000/svg" viewBox="0 0 458.95 181.39">
  <defs>
    <style>
      .cls-1 {
        fill: #0446a4;
      }

      .cls-1, .cls-2, .cls-3, .cls-4 {
        fill-rule: evenodd;
        stroke-width: 0px;
      }

      .cls-2 {
        fill: #380167;
      }

      .cls-3 {
        fill: #511584;
      }

      .cls-4 {
        fill: #ad63fd;
      }
    </style>
  </defs>
  <g id="Layer_2-2" data-name="Layer 2">
    <path class="cls-2" d="m89.91,59.14c-10.88,11.55-11.68,21.69,1.92,34.5h-11.83c-.8-.3-1.63-.55-2.48-.75-4.43-1.07-8.87-.72-12.85.75h-11.83c13.6-12.81,12.8-22.95,1.92-34.5h8.79c3.73,1.98,8.15,2.72,12.6,1.79,1.78-.37,3.44-.98,4.97-1.79h8.78Z"/>
    <path class="cls-4" d="m351.73,12.83h6.25l.06-.96c.02-.35.33-.62.68-.59h.2c.07-1.01.36-1.81.76-2.48.38-.64.83-1.12,1.26-1.54l.68-.68,1.59,1.59-.68.68c-.33.33-.68.7-.93,1.11-.24.39-.41.87-.45,1.49h.2c.35.04.62.34.59.69l-.05.69h6.25c.69,0,1.25.56,1.25,1.25v9.77c0,.69-.56,1.25-1.25,1.25h-16.41c-.69,0-1.25-.56-1.25-1.25v-9.77c0-.69.56-1.25,1.25-1.25h0Zm4.14,8.38c-.28,0-.51.23-.51.52v1.41c0,.28.23.52.51.52h8.35c.28,0,.51-.23.51-.52v-1.41c0-.28-.23-.51-.51-.51h-8.35Zm6.94-3.47c-.28,0-.51.23-.51.51v1.41c0,.28.23.51.51.51h1.41c.28,0,.51-.23.51-.51v-1.41c0-.28-.23-.51-.51-.51h-1.41Zm3.47-1.03h1.41c.28,0,.51-.23.51-.51v-1.41c0-.28-.23-.51-.51-.51h-1.41c-.28,0-.51.23-.51.51v1.41c0,.28.23.51.51.51Zm-3.47,0h1.41c.28,0,.51-.23.51-.51v-1.41c0-.28-.23-.51-.51-.51h-1.41c-.28,0-.51.23-.51.51v1.41c0,.28.23.51.51.51Zm3.47,4.5c-.28,0-.51.23-.51.52v1.41c0,.28.23.52.51.52h1.41c.28,0,.51-.23.51-.52v-1.41c0-.28-.23-.51-.51-.51h-1.41Zm0-3.47c-.28,0-.51.23-.51.51v1.41c0,.28.23.51.51.51h1.41c.28,0,.51-.23.51-.51v-1.41c0-.28-.23-.51-.51-.51h-1.41Zm-10.41,0c-.28,0-.51.23-.51.51v1.41c0,.28.23.51.51.51h1.41c.28,0,.51-.23.51-.51v-1.41c0-.28-.23-.51-.51-.51h-1.41Zm-2.06-1.03c.28,0,.51-.23.51-.51v-1.41c0-.28-.23-.51-.51-.51h-1.41c-.28,0-.51.23-.51.51v1.41c0,.28.23.51.51.51h1.41Zm5.53,0h1.41c.28,0,.51-.23.51-.51v-1.41c0-.28-.23-.51-.51-.51h-1.41c-.28,0-.51.23-.51.51v1.41c0,.28.23.51.51.51Zm-3.47,0h1.41c.28,0,.51-.23.51-.51v-1.41c0-.28-.23-.51-.51-.51h-1.41c-.28,0-.51.23-.51.51v1.41c0,.28.23.51.51.51Zm-2.06,4.5h-1.41c-.28,0-.51.23-.51.52v1.41c0,.28.23.52.51.52h1.41c.28,0,.51-.23.51-.52v-1.41c0-.28-.23-.51-.51-.51h0Zm0-3.47h-1.41c-.28,0-.51.23-.51.51v1.41c0,.28.23.51.51.51h1.41c.28,0,.51-.23.51-.51v-1.41c0-.28-.23-.51-.51-.51h0Zm5.53,0c-.28,0-.51.23-.51.51v1.41c0,.28.23.51.51.51h1.41c.28,0,.51-.23.51-.51v-1.41c0-.28-.23-.51-.51-.51h-1.41Z"/>
    <path class="cls-2" d="m63.56,50.93c-2.4,0-4.35-1.95-4.35-4.35,0-2.18,1.6-3.98,3.7-4.3.39-3.05,2.99-5.4,6.14-5.4,2.09,0,3.94,1.03,5.06,2.62.39-.12.81-.18,1.24-.18,1.91,0,3.53,1.23,4.11,2.94,2.18.23,3.88,2.08,3.88,4.32,0,2.4-1.95,4.35-4.35,4.35h-15.43Zm-1.16-3.96c0-.69.25-1.32.66-1.8.42-.49,1.01-.83,1.68-.93.4-.06.67-.43.61-.82-.06-.4-.43-.67-.82-.61-1.02.15-1.92.67-2.57,1.42-.63.74-1.02,1.7-1.02,2.74,0,.4.33.73.73.73s.73-.33.73-.73Zm4.45-6.45c.39-.39.86-.71,1.37-.92.5-.21,1.04-.32,1.62-.32.4,0,.73-.33.73-.73s-.33-.73-.73-.73c-.77,0-1.5.15-2.17.43-.7.29-1.33.71-1.85,1.24-.28.28-.28.74,0,1.03.28.28.74.28,1.03,0Zm12.76,2.43c-.17-.05-.34-.09-.52-.11-.18-.03-.36-.04-.53-.04-.39,0-.77.06-1.14.18-.37.12-.72.3-1.03.52h0c-.12.09-.24.18-.34.28-.11.1-.21.2-.31.32-.15.18-.29.37-.4.57h0c-.12.21-.21.42-.29.63-.11.33.06.7.4.81.33.11.7-.06.81-.4.05-.15.11-.29.19-.41h0c.08-.14.17-.26.26-.37l.2-.21.22-.18h0c.2-.15.43-.26.67-.34.23-.07.48-.12.75-.12.12,0,.24,0,.35.02.12.02.23.04.34.07.34.1.69-.09.79-.43.1-.34-.09-.69-.43-.79Zm4.25-3.66c.08.25.34.39.6.32l.64-.17c.14-.04.24-.12.31-.24s.08-.26.03-.39c-1.47-4.48-6.09-7.14-10.7-6.18-.14.03-.25.11-.32.23-.07.12-.09.25-.06.39l.17.64c.07.25.32.41.58.36,3.77-.77,7.53,1.4,8.75,5.05Zm-2.8.77c.09.24.34.37.59.31l.64-.17c.14-.04.24-.12.31-.25.07-.13.08-.26.03-.4-1.05-2.92-4.07-4.66-7.13-4.11-.14.03-.25.1-.33.22-.08.12-.1.26-.06.39l.17.64c.07.25.31.4.56.36,2.23-.38,4.43.89,5.21,3.01Z"/>
    <path class="cls-4" d="m84.5,109.68c-6.95-6.06-17.37-6.06-24.32,0-.55.48-1.37.45-1.88-.06l-.89-.89c-.28-.28-.42-.63-.4-1.02.01-.4.17-.73.47-.99,8.48-7.45,21.27-7.45,29.75,0,.3.26.46.6.47.99.01.4-.12.74-.4,1.02l-.89.89c-.51.52-1.34.54-1.89.07Zm-12.16,10.3c2.09,0,3.78,1.69,3.78,3.79s-1.69,3.78-3.78,3.78-3.79-1.69-3.79-3.78,1.69-3.79,3.79-3.79Zm7.95-6.04c.55.45,1.35.41,1.85-.09l.89-.89c.28-.29.42-.64.4-1.04-.02-.4-.19-.74-.5-1-6.12-5.11-15.09-5.11-21.22,0-.31.26-.48.6-.5,1-.02.4.12.75.4,1.04l.89.89c.5.5,1.3.54,1.85.09,4.61-3.78,11.3-3.78,15.91,0Zm-4.49,4.66c-2.08-1.42-4.85-1.42-6.93,0-.55.38-1.28.31-1.76-.16l-.9-.9c-.3-.3-.43-.67-.4-1.09.03-.42.23-.76.57-1.01,3.54-2.58,8.37-2.58,11.92,0,.34.25.53.59.57,1.01.03.42-.1.79-.4,1.09l-.9.9c-.48.47-1.2.54-1.76.16Z"/>
    <path class="cls-4" d="m183.54,130.17h28.3c1.16,0,2.1.95,2.1,2.1v17.39c0,1.16-.94,2.1-2.1,2.1h-28.3c-1.16,0-2.1-.95-2.1-2.1v-17.39c0-1.16.94-2.1,2.1-2.1Zm33.1,23.39h-37.83c-1.03,0-1.88.84-1.88,1.88h0c0,1.03.85,1.88,1.88,1.88h37.83c1.03,0,1.88-.85,1.88-1.88h0c0-1.03-.85-1.88-1.88-1.88Zm-3.64,2.66h-13c-.43,0-.79-.35-.79-.79h0c0-.43.35-.79.79-.79h13c.43,0,.79.35.79.79h0c0,.43-.35.79-.79.79Zm-2.49-22.2h-25.64v14.16h25.64v-14.16Zm-26.59-1.89c-.52,0-.94.42-.94.94v16.05c0,.52.42.94.94.94h27.53c.52,0,.94-.42.94-.94v-16.05c0-.52-.42-.94-.94-.94h-27.53Z"/>
    <path class="cls-3" d="m170.17,41.99h4.63-4.63Zm11.91,38.66h-19.19c-1.56,0-2.83-1.27-2.83-2.83v-35.26c0-1.56,1.27-2.83,2.83-2.83h19.19c1.56,0,2.83,1.27,2.83,2.83v35.26c0,1.56-1.27,2.83-2.83,2.83Zm-2.21-34.39h-14.77v25.9h14.77v-25.9Zm-9.7-3.31c-.53,0-.95-.43-.95-.95s.43-.95.95-.95h4.63c.53,0,.95.43.95.95s-.43.95-.95.95h-4.63Zm12.24,30.62v-.13s0-28.44,0-28.44v-.06s0-.08,0-.08l-.04-.17c-.14-.55-.64-.96-1.23-.96h-17.31c-.6,0-1.1.41-1.23.96l-.04.17v.14s0,28.44,0,28.44v.06s0,.08,0,.08l.04.17c.14.55.64.96,1.23.96h17.31c.6,0,1.09-.41,1.23-.96l.04-.17Zm-8.9,2.58c-.26-.26-.63-.43-1.03-.43s-.77.16-1.03.43-.43.63-.43,1.03.16.77.43,1.03c.26.26.63.43,1.03.43s.77-.16,1.03-.43c.26-.26.43-.63.43-1.03s-.16-.77-.43-1.03Z"/>
    <path class="cls-2" d="m387.6,94h9.22c1.09,0,1.98.89,1.98,1.98v20.61c0,1.09-.89,1.98-1.98,1.98h-9.22c-1.09,0-1.98-.89-1.98-1.98v-20.61c0-1.09.89-1.98,1.98-1.98Zm-29.92,0h24.89c1.09,0,1.98.89,1.98,1.98v16.63c0,1.09-.89,1.98-1.98,1.98h-24.89c-1.09,0-1.98-.89-1.98-1.98v-16.63c0-1.09.89-1.98,1.98-1.98Zm23.86,3.15h-22.83v14.24h22.83v-14.24Zm-23.71-1.78c-.49,0-.89.4-.89.89v16.01c0,.49.4.89.89.89h24.6c.49,0,.89-.4.89-.89v-16.01c0-.49-.4-.89-.89-.89h-24.6Zm6,20.54h12.23v1.29h3.63c.42,0,.76.34.76.76v.6h-21v-.6c0-.42.34-.76.76-.76h3.63v-1.29Zm25-11.23v.9h6.77v-.9h-6.77Zm0,5v.9h6.77v-.9h-6.77Zm0-2.5v.9h6.77v-.9h-6.77Zm-.13-10.06c-.42,0-.76.34-.76.76v1.56c0,.42.34.76.76.76h7.03c.42,0,.76-.34.76-.76v-1.56c0-.42-.34-.76-.76-.76h-7.03Zm3.51,16.27c-.81,0-1.47.66-1.47,1.47s.66,1.47,1.47,1.47,1.47-.66,1.47-1.47-.66-1.47-1.47-1.47Z"/>
    <path class="cls-2" d="m128.26,169.68h-14.27c-.98,0-1.77-.8-1.77-1.77v-6.86l.76-.42v-1.83l-.76-.28v-1.77l2.74-2.08v-6.79c0-1,.81-1.81,1.81-1.81h11.5c.98,0,1.77.8,1.77,1.77v20.07c0,.98-.8,1.77-1.77,1.77Zm-8.71-21.27h-2.53v6.07h2.53v-6.07Zm1.59,6.07h2.53v-6.07h-2.53v6.07Zm6.65-5.98l-.2-.09h-2.33v6.07h2.35c.1,0,.18-.08.18-.18v-5.8Z"/>
    <path class="cls-2" d="m445.54,170.62h-.99,0v1.24c0,.73-1.1.73-1.1,0v-1.23h0s-3.05-.01-3.05-.01h0v1.24c0,.73-1.1.73-1.1,0v-1.23h0s-3.05-.01-3.05-.01h0v1.24c0,.73-1.1.73-1.1,0v-1.23h0s-.99-.01-.99-.01c-.69,0-1.25-.56-1.25-1.25v-.99h-.01s-1.23,0-1.23,0c-.73,0-.73-1.1,0-1.1h1.24v-3.05h-.01s-1.23,0-1.23,0c-.73,0-.73-1.1,0-1.1h1.24s0-3.05,0-3.05h-.01s-1.23,0-1.23,0c-.73,0-.73-1.1,0-1.1h1.24s0-.99,0-.99c0-.69.56-1.25,1.25-1.25h.99,0v-1.24c0-.73,1.1-.73,1.1,0v1.23h0s3.05.01,3.05.01h0v-1.24c0-.73,1.1-.73,1.1,0v1.23h0s3.05.01,3.05.01h0v-1.24c0-.73,1.1-.73,1.1,0v1.23h0s.99.01.99.01c.69,0,1.25.56,1.25,1.25v.99h1.24c.73,0,.73,1.1,0,1.1h-1.24s0,3.05,0,3.05h.01s1.23,0,1.23,0c.73,0,.73,1.1,0,1.1h-1.24s0,3.05,0,3.05h1.24c.73,0,.73,1.1,0,1.1h-1.24s0,.99,0,.99c0,.69-.56,1.25-1.25,1.25Zm-.91-11.89h-9.55c-.09,0-.17.08-.17.17v9.55c0,.09.08.17.17.17h9.55c.09,0,.17-.08.17-.17v-9.55c0-.09-.08-.17-.17-.17Zm1.31,10.84v-11.79c0-.11-.09-.19-.19-.19h-11.79c-.11,0-.19.09-.19.19v11.79c0,.11.09.19.19.19h11.79c.11,0,.19-.09.19-.19Z"/>
    <path class="cls-3" d="m295.91,46.79h17.59c.94,0,1.7.77,1.7,1.7v16.52c0,.94-.76,1.7-1.7,1.7h-1.49v-2.26h.68c.14,0,.26-.12.26-.26v-11.4c0-.14-.12-.26-.26-.26h-18.48v-4.04c0-.94.76-1.7,1.7-1.7Zm-4.34,6.88c-.94,0-1.7.77-1.7,1.7v16.52c0,.94.77,1.7,1.7,1.7h17.59c.94,0,1.7-.77,1.7-1.7v-16.51c0-.94-.76-1.7-1.7-1.7h-17.59Zm17.04,6.01c0-.14-.12-.26-.26-.26h-15.96c-.14,0-.26.12-.26.26v11.4c0,.14.12.26.26.26,5.91,0,10.05,0,15.96,0,.14,0,.26-.12.26-.26v-11.4Z"/>
    <path class="cls-2" d="m256.52,29.78v-10.61c0-.86-.7-1.56-1.56-1.56h-19.5c-.86,0-1.56.7-1.56,1.56v2.7h-1.94v5.22h1.94v2.7c0,.86.7,1.56,1.56,1.56h19.5c.86,0,1.56-.7,1.56-1.56Zm-19.97-9.72h17.32v8.83h-17.32v-8.83Zm6.83,1.01h3.26l-1.27,2.28h1.67l-2.74,4.92v-3.44h-.92v-3.76Zm11.52,8.89h-19.38c-.13,0-.24-.11-.24-.24v-10.5c0-.13.11-.24.24-.24h19.38c.13,0,.24.11.24.24v10.5c0,.13-.11.24-.24.24Z"/>
    <path class="cls-3" d="m19.99,158.82v4.12c0,.43-.36.79-.79.79h-9.32c-.43,0-.79-.35-.79-.79v-4.12c0-.44.36-.79.79-.79h9.32c.44,0,.79.36.79.79Zm-7.01,11.54h11.34c.78,0,1.41-.63,1.41-1.41v-12.44l-4.92-4.92h-7.83c-.78,0-1.41.63-1.41,1.41v4.04h1.86v-3.37c0-.12.1-.22.22-.22h6.29v1.89c0,1.12.91,2.03,2.03,2.03h1.89v10.89c0,.12-.1.22-.22.22h-9.99c-.12,0-.22-.1-.22-.22v-3.56h-1.86v4.23c0,.78.63,1.41,1.41,1.41Zm9.17-16.67l-.23-.23h0l.23.23Z"/>
    <path class="cls-4" d="m328.39,159.9c-.76-.75-1.25-1.8-.69-2.36l2.3-2.3-.32-.32c-1-1-4.22.76-5.32,2.4-.56.83-.72,2.06.12,3.09l-7.47,7.47c-.27.27-.44.61-.49.97-.2,1.42,1.52,3.13,2.93,2.93.36-.05.7-.21.97-.49l7.43-7.43c.94.93,2.21.66,3.11.06,1.64-1.09,3.4-4.31,2.4-5.32l-.32-.32-2.3,2.3c-.56.56-1.61.07-2.36-.69Zm4.85,9.05c-.31.56-.68,1.05-1.11,1.48l-.03.02c-.42.42-.91.78-1.45,1.09-.34.19-.72.26-1.08.21-.36-.05-.71-.22-.98-.49h0s0,0,0,0l-3.48-3.48.62-.62,3.48,3.48h0c.14.14.31.22.48.25h.25s-3.97-3.97-3.97-3.97l1.98-1.98c.18.1.37.18.56.23l3.74,3.74c.08-.12.16-.25.23-.38.09-.17.13-.36.1-.54-.02-.18-.11-.35-.25-.48l-2.3-2.3c.32-.07.62-.18.91-.32l2.01,2.01c.28.27.44.62.49.98.05.36-.02.74-.21,1.08Zm-10.96-7.48l-2.25-2.25-.93.04-2.45-3.01,1.31-1.31,3.01,2.45-.04.93,1.4,1.4.84.84-.9.9Zm-4.03,8.6c-.68-.68-.68-1.78,0-2.46s1.78-.68,2.46,0c.68.68.68,1.78,0,2.46-.68.68-1.78.68-2.46,0Z"/>
    <polygon class="cls-2" points="264.16 116.83 281.69 122.7 275.71 125.95 280.75 130.99 278.33 133.41 273.29 128.37 270.04 134.35 264.16 116.83"/>
    <path class="cls-4" d="m16.44,15.68c1.71,0,3.09,1.38,3.09,3.09s-1.38,3.09-3.09,3.09-3.09-1.38-3.09-3.09,1.38-3.09,3.09-3.09Zm-4.58,10.78c.84.49,1.72.85,2.62,1.1l1.15-4.11c-.56-.16-1.11-.39-1.64-.69l-2.14,3.7Zm9.17-15.38c-.84-.49-1.72-.85-2.62-1.1l-1.15,4.11c.56.16,1.11.39,1.64.69l2.14-3.7Zm-4.58-1.94c-5.32,0-9.63,4.31-9.63,9.63s4.31,9.64,9.63,9.64,9.63-4.31,9.63-9.64-4.31-9.63-9.63-9.63Zm0,13.7c2.24,0,4.06-1.82,4.06-4.06s-1.82-4.06-4.06-4.06-4.06,1.82-4.06,4.06,1.82,4.06,4.06,4.06Zm0-5.77c-.94,0-1.71.77-1.71,1.71s.77,1.71,1.71,1.71,1.71-.77,1.71-1.71-.77-1.71-1.71-1.71Z"/>
    <path class="cls-3" d="m438.14,39.43l1.73-.72,3.04,1.57c1.04-1.04,2.07-2.07,3.11-3.11l-1.57-3.04.72-1.73,3.26-1.04v-4.39l-3.26-1.04-.72-1.73,1.57-3.04c-1.04-1.04-2.07-2.07-3.11-3.11l-3.04,1.57-1.73-.72-1.04-3.26h-4.39l-1.04,3.26-1.73.72-3.04-1.57c-1.04,1.04-2.07,2.07-3.11,3.11l1.57,3.04-.72,1.73-3.26,1.04v4.39l3.26,1.04.72,1.73-1.57,3.04c1.04,1.04,2.07,2.07,3.11,3.11l3.04-1.57,1.73.72,1.04,3.26h4.39l1.04-3.26Zm-3.24-16.17c3.26,0,5.9,2.64,5.9,5.9s-2.64,5.9-5.9,5.9-5.9-2.64-5.9-5.9,2.64-5.9,5.9-5.9Zm0,8.69c-1.54,0-2.78-1.25-2.78-2.78s1.24-2.78,2.78-2.78,2.78,1.25,2.78,2.78-1.24,2.78-2.78,2.78Zm0,4.99c-4.29,0-7.78-3.48-7.78-7.78s3.48-7.78,7.78-7.78,7.78,3.48,7.78,7.78-3.48,7.78-7.78,7.78Z"/>
    <path class="cls-1" d="m325.35,64.2l1.33,2.22c-.57-.21-1.13-.41-1.68-.59.13-.53.25-1.07.34-1.62Z"/>
    <path class="cls-3" d="m17.98,143.74c14.78-.04,26-4.96,25.94-29.33l9.15,10.65c1.44,2.59,3.4,4.89,5.78,6.73l9.13,10.63c-24.09-3.75-30.65,6.6-32.92,21.2l-3.76-4.38c-.67-5.16-4.34-9.61-9.55-11.12l-3.76-4.38Z"/>
    <path class="cls-3" d="m34.87,164.6c2-9.3-3.92-18.46-13.22-20.47-9.3-2-18.46,3.92-20.47,13.22-2,9.3,3.92,18.46,13.22,20.47,9.3,2,18.46-3.92,20.47-13.22Zm-3.77-.81c-1.55,7.22-8.67,11.82-15.89,10.26-7.22-1.55-11.82-8.67-10.26-15.89,1.55-7.22,8.67-11.82,15.89-10.26,7.22,1.55,11.82,8.67,10.26,15.89Z"/>
    <path class="cls-4" d="m373.67,143.89c-26.39-2.51-30.88,9.25-31.99,20.9l-3.79-3.48c-.75-5.06-4.48-9.4-9.76-10.68-.76-.18-1.51-.29-2.26-.34l-3.79-3.48c11.5-2.12,22.83-7.62,18.03-33.69l33.57,30.76Z"/>
    <path class="cls-2" d="m422.36,166.55c-2.34-14.27-8.6-27.97-39-22.99l31.56-34.42c-2.33,30.72,11.86,35.77,26.28,36.86l-3.81,4.16c-5.95,1.08-10.64,6.01-11.22,12.24l-3.81,4.16Z"/>
    <path class="cls-2" d="m438.95,181.37c9.77.5,18.09-7.01,18.59-16.78.5-9.77-7.01-18.09-16.78-18.59-9.77-.5-18.09,7.01-18.59,16.78-.5,9.77,7.01,18.09,16.78,18.59Zm.2-3.96c-7.58-.39-13.42-6.85-13.03-14.43.39-7.58,6.85-13.42,14.43-13.03,7.58.39,13.42,6.85,13.03,14.43-.39,7.58-6.85,13.42-14.43,13.03Z"/>
    <path class="cls-4" d="m262.8,144.32c-13.09-6.48-24.54-6.21-34.75,14.42l-4.09-16.35c-.18-3.43-1.02-6.74-2.45-9.78l-4.1-16.38c18.72,13.39,28.95,8.24,37.45-3.64l1.74,6.96c-.18.52-.34,1.06-.48,1.61-1.47,6.1.62,12.23,4.93,16.19l1.74,6.96Z"/>
    <path class="cls-4" d="m321.18,179.41c8.95,2.16,17.95-3.34,20.11-12.28,2.16-8.95-3.34-17.95-12.28-20.11-8.95-2.16-17.95,3.34-20.11,12.28-2.16,8.94,3.34,17.95,12.28,20.11Zm.88-3.62c-6.94-1.68-11.21-8.67-9.54-15.61,1.68-6.94,8.67-11.21,15.61-9.54,6.94,1.68,11.21,8.67,9.54,15.61-1.68,6.95-8.67,11.21-15.61,9.54Z"/>
    <path class="cls-4" d="m31.26,11.68c5.59,11.69,13.49,17.35,30.66,9.13l-4.38,10.29c-1.97,2.53-3.28,5.56-3.75,8.79l-4.37,10.27c-5.97-18.07-15.52-19.85-27.83-15.79l2.21-5.19c2.73-1.93,4.71-4.93,5.25-8.5.2-1.3.19-2.59,0-3.82l2.21-5.18Z"/>
    <path class="cls-4" d="m13.97,35.02C5,33.66-1.17,25.28.19,16.31,1.55,7.33,9.93,1.16,18.9,2.52c8.97,1.36,15.14,9.74,13.78,18.71-1.36,8.97-9.74,15.14-18.71,13.78Zm.55-3.63c6.97,1.06,13.47-3.73,14.53-10.7,1.06-6.97-3.73-13.47-10.7-14.53-6.97-1.06-13.47,3.73-14.53,10.7-1.06,6.97,3.73,13.47,10.7,14.53Z"/>
    <path class="cls-3" d="m414.85,42.43c-13.27-20.06-30.91-20.22-45.35-10.66l.96-6.06c1.35-1.69,2.31-3.72,2.72-5.99.45-2.48.18-4.93-.64-7.13l.96-6.07c10.8,13.54,27.63,18.83,46.43,3.84l-1.62,10.28c-1.17,2.28-1.89,4.84-2.03,7.57-.07,1.34,0,2.66.21,3.93l-1.62,10.29Z"/>
    <path class="cls-3" d="m433.68,53.18c13.26.68,24.56-9.52,25.24-22.79.68-13.26-9.52-24.56-22.79-25.24-13.26-.68-24.56,9.52-25.24,22.79-.68,13.26,9.52,24.56,22.79,25.24Zm.27-5.37c-10.3-.53-18.22-9.3-17.69-19.6.53-10.3,9.3-18.22,19.6-17.69,10.3.53,18.22,9.3,17.69,19.6-.53,10.3-9.3,18.22-19.6,17.69Z"/>
    <path class="cls-2" d="m133.32,137.81c13.02,7.7,24.14,7.6,35.32-11.29l2.9,15.65c-.27,4.35.57,8.6,2.3,12.41l2.9,15.66c-17.2-13.63-27.62-9.75-37.02,2.11l-1.45-7.81c.31-.78.56-1.58.77-2.41,1.47-6.09-.33-12.2-4.27-16.5l-1.45-7.81Z"/>
    <path class="cls-3" d="m206.59,79.89c-9.55,16.54-6.14,26.37,8.06,34.57l-11.75,3.55c-8.89-1.79-17.7,1.16-23.73,7.17l-11.74,3.55c7.28-14.69,4.68-24.77-12.44-33.25l15.77-4.77c7.33.42,14.4-1.83,20.04-6.06l15.78-4.77Z"/>
    <path class="cls-4" d="m189.79,176.61c18.15,4.39,36.42-6.77,40.81-24.92,4.39-18.15-6.77-36.42-24.92-40.81-18.15-4.39-36.42,6.77-40.8,24.92-4.39,18.15,6.77,36.42,24.92,40.81Zm1.78-7.35c-14.09-3.41-22.75-17.59-19.35-31.68,3.41-14.09,17.59-22.75,31.68-19.35,14.09,3.41,22.75,17.59,19.35,31.68-3.41,14.09-17.59,22.75-31.68,19.35Z"/>
    <path class="cls-2" d="m240,44.76c-12.58-2.63-23.96-.43-28.96,23.49l-21.74-43.67c22.1,10.43,30.72,2.68,36.21-8.94l2.93,5.88-.02.1c-1.3,7.21,2.41,14.16,8.66,17.26l2.93,5.88Z"/>
    <path class="cls-2" d="m240.55,44.86c11.26,2.04,22.03-5.44,24.07-16.7,2.04-11.26-5.44-22.03-16.7-24.07-11.26-2.03-22.03,5.44-24.07,16.7-2.04,11.26,5.44,22.03,16.7,24.07Zm.82-4.56c-8.74-1.58-14.54-9.95-12.96-18.69,1.58-8.74,9.95-14.54,18.69-12.96,8.74,1.58,14.54,9.95,12.96,18.69-1.58,8.74-9.95,14.54-18.69,12.96Z"/>
    <path class="cls-2" d="m115.97,180.53c12.51,3.02,25.1-4.67,28.13-17.18,3.02-12.51-4.67-25.1-17.18-28.13-12.51-3.02-25.1,4.67-28.13,17.18-3.02,12.51,4.67,25.1,17.18,28.13Zm1.22-5.07c-9.71-2.35-15.68-12.12-13.34-21.84,2.35-9.71,12.12-15.68,21.84-13.34,9.71,2.35,15.68,12.12,13.34,21.84-2.35,9.71-12.12,15.68-21.84,13.34Z"/>
    <path class="cls-4" d="m159.42,97.35c-36.06-12.67-51.12.39-60.27,26.41l-4.76-8.8c.23-7.92-3.84-15.33-10.5-19.42l-4.76-8.8c26.78,6.6,45.96,1.14,55.1-35.97l8.22,15.2c1.19,6.17,4.27,11.82,8.74,16.17l8.22,15.21Z"/>
    <path class="cls-3" d="m163.23,98.46c21.14,5.11,42.42-7.89,47.53-29.02,5.11-21.14-7.89-42.42-29.02-47.53-21.14-5.11-42.42,7.89-47.53,29.02-5.11,21.14,7.89,42.42,29.02,47.52Zm2.07-8.56c-16.41-3.97-26.5-20.49-22.53-36.9,3.97-16.41,20.49-26.5,36.9-22.53,16.41,3.97,26.5,20.49,22.53,36.9-3.97,16.41-20.49,26.5-36.9,22.53Z"/>
    <path class="cls-2" d="m95.97,37.67c-2.72-13.05-15.5-21.42-28.55-18.71-13.05,2.72-21.43,15.5-18.71,28.55,2.72,13.05,15.5,21.43,28.55,18.71,13.05-2.72,21.43-15.5,18.71-28.55Zm-5.29,1.1c2.11,10.13-4.39,20.06-14.52,22.17-10.13,2.11-20.06-4.39-22.17-14.52-2.11-10.13,4.39-20.06,14.52-22.17,10.13-2.11,20.06,4.39,22.17,14.52Z"/>
    <path class="cls-4" d="m65.67,141.96c15.25,3.69,30.61-5.69,34.3-20.95,3.69-15.25-5.69-30.61-20.95-34.3-15.25-3.69-30.61,5.69-34.3,20.95-3.69,15.26,5.69,30.61,20.95,34.3Zm1.49-6.18c-11.84-2.86-19.12-14.78-16.26-26.63,2.86-11.84,14.78-19.12,26.63-16.26,11.84,2.86,19.12,14.78,16.26,26.63-2.86,11.84-14.78,19.12-26.63,16.26Z"/>
    <path class="cls-4" d="m358.97,34.62c-13.98-.79-25.29,3.18-26.64,27.25l-9.25-12.38c-1.15-2.21-2.65-4.21-4.43-5.94l-9.26-12.39c23.46,5.54,30.48-4.18,33.69-17.81l3.42,4.59c.24,5.46,3.81,10.3,9.04,12.1l3.43,4.59Z"/>
    <path class="cls-3" d="m340.13,113.32c-4.15-21.92-14.73-27.1-32.04-23.82l5.54-8.98c6.82-3.73,11.61-10.81,12.04-19.15v-.38s5.56-8.98,5.56-8.98c4.83,16.94,14.21,24.07,35.66,17.95l-8.62,13.98c-4.62,3.93-8.03,9.28-9.51,15.42l-8.62,13.97Z"/>
    <path class="cls-4" d="m356.86,34.37c9.41,1.7,18.42-4.55,20.13-13.96,1.7-9.41-4.55-18.42-13.96-20.13-9.41-1.7-18.42,4.55-20.13,13.96-1.7,9.41,4.55,18.42,13.96,20.13Zm.69-3.81c-7.31-1.32-12.16-8.32-10.84-15.62,1.32-7.31,8.32-12.16,15.63-10.84,7.31,1.32,12.16,8.32,10.84,15.63-1.32,7.31-8.32,12.16-15.62,10.84Z"/>
    <path class="cls-2" d="m375.32,144.01c20.84,1.07,38.59-14.96,39.66-35.8,1.07-20.84-14.96-38.59-35.8-39.65-20.84-1.07-38.59,14.96-39.66,35.8-1.07,20.84,14.96,38.59,35.8,39.66Zm.43-8.44c-16.18-.83-28.62-14.61-27.79-30.79.83-16.18,14.61-28.62,30.79-27.79,16.18.83,28.62,14.61,27.79,30.79-.83,16.18-14.61,28.62-30.79,27.79Z"/>
    <path class="cls-2" d="m263.8,105.38c13.53-5.85,19.49-14.54,11.35-33.35l12.29,5.72c3.15,2.71,7.05,4.6,11.37,5.3l12.28,5.72c-19.63,5.88-22.45,16.03-18.22,30.15l-6.74-3.14c-2.24-3.34-5.69-5.88-9.91-6.9-1.92-.46-3.85-.57-5.7-.37l-6.73-3.13Z"/>
    <path class="cls-2" d="m267.28,145.94c11.52,2.78,23.11-4.3,25.9-15.82,2.78-11.52-4.3-23.11-15.82-25.9-11.52-2.78-23.11,4.3-25.9,15.82-2.78,11.52,4.3,23.11,15.82,25.9Zm1.13-4.66c-8.94-2.16-14.44-11.16-12.28-20.11,2.16-8.94,11.16-14.44,20.11-12.28,8.94,2.16,14.44,11.16,12.28,20.11-2.16,8.94-11.16,14.44-20.11,12.28Z"/>
    <path class="cls-3" d="m301.01,89.98c16.45.84,30.48-11.81,31.32-28.27.84-16.46-11.82-30.48-28.27-31.32-16.46-.84-30.48,11.82-31.32,28.27-.84,16.46,11.82,30.48,28.27,31.32Zm.34-6.66c-12.78-.65-22.6-11.54-21.95-24.31.65-12.77,11.54-22.6,24.31-21.95,12.77.65,22.6,11.54,21.95,24.31-.65,12.78-11.54,22.6-24.31,21.95Z"/>
  </g>
</svg>