<?xml version="1.0" encoding="UTF-8"?>
<svg id="Layer_2" data-name="Layer 2" xmlns="http://www.w3.org/2000/svg" viewBox="0 0 201.29 46.49">
  <defs>
    <style>
      .cls-1 {
        fill: #511584;
      }

      .cls-1, .cls-2 {
        stroke-width: 0px;
      }

      .cls-2 {
        fill: #fff;
      }
    </style>
  </defs>
  <g id="Layer_1-2" data-name="Layer 1">
    <path class="cls-1" d="m36.28,40.01l-18.09-16.64H.04l-.04.03h0v7.71l18.17,15.34.03-.03.02-.02v.08h18.12v-6.42l-.04-.03-.04-.03Zm-18.05-8.89l-.02-.02h.02v.02Zm17.48-19.27C35.71,5.49,30.55.33,24.19.33h-5.99v23.04h5.99c6.36,0,11.52-5.16,11.52-11.52Z"/>
    <g>
      <path class="cls-2" d="m73.76,11.1c-5.95,0-8.93,3.55-10.27,8.72h-.06l.23-8.26h-6.54v28.72h6.54v-12.56c0-6.86,3.09-11.05,8.05-11.05,3.85,0,5.72,2.27,5.72,7.09,0,1.34-.12,2.79-.23,3.9h5.95c.12-1.22.29-3.55.29-5.35,0-7.15-3.44-11.22-9.69-11.22Z"/>
      <path class="cls-2" d="m101.63,11.1c-9.1,0-14.82,5.76-14.82,15.06s5.72,14.59,14.82,14.59c7.88,0,13.13-3.9,13.36-10.29h-5.89c-.29,3.37-3.15,5.23-7.35,5.23-4.9,0-7.99-2.97-8.34-8.49h21.59v-2.33c0-8.95-5.19-13.78-13.36-13.78Zm7.47,12.15h-15.52c.76-4.77,3.62-7.09,8.11-7.09,4.73,0,7.41,2.38,7.41,6.69v.41Z"/>
      <rect class="cls-2" x="119.34" y="0" width="6.54" height="40.29"/>
      <path class="cls-2" d="m144.21,11.1c-8.23,0-13.25,3.43-13.25,9.19,0,.52.06,1.28.12,1.69h6.01c-.06-.47-.06-.93-.06-1.1,0-3.2,2.51-4.88,6.94-4.88,5.08,0,7.59,1.92,7.59,6.22v2.03h-10.68c-7.7,0-10.8,3.43-10.8,7.79,0,5.58,4.38,8.72,10.97,8.72s9.8-2.56,10.74-6.8h.06c0,2.33-.18,4.94-.29,6.34h6.54v-17.5c0-7.56-5.14-11.69-13.89-11.69Zm7.35,17.62c0,4.42-3.5,7.15-9.16,7.15-3.97,0-6.3-1.51-6.3-4.13,0-2.27,1.63-3.55,5.37-3.55h10.1v.52Z"/>
      <path class="cls-2" d="m176.64,35.41c-4.84,0-7.88-3.6-7.88-9.48s3.09-9.48,8.11-9.48c4.38,0,7.18,2.62,7.24,6.92h5.89c0-7.62-5.25-12.27-13.31-12.27-8.69,0-14.47,5.64-14.47,14.82s5.66,14.83,14.12,14.83,13.71-4.48,13.71-12.15h-5.89c-.06,4.24-2.92,6.8-7.53,6.8Z"/>
      <rect class="cls-2" x="194.58" y="1.8" width="6.71" height="6.4"/>
      <rect class="cls-2" x="194.63" y="11.57" width="6.54" height="28.72"/>
    </g>
  </g>
</svg>